<svg width="18" height="15" viewBox="0 0 18 15" fill="none" xmlns="http://www.w3.org/2000/svg">
<path d="M2.99061 8.94016C3.32484 8.94016 3.60951 8.68451 3.63951 8.34539C3.67147 7.9867 3.40604 7.67007 3.04735 7.63845H3.0467C3.003 7.28106 2.68019 7.029 2.31987 7.07074C1.96216 7.11476 1.70814 7.44019 1.75216 7.79757C1.82683 8.40441 2.32345 8.88374 2.93257 8.93755C2.95214 8.9395 2.9717 8.94016 2.99061 8.94016Z" fill="#3F3631"/>
<path d="M13.583 9.86687C13.9176 9.86687 14.2022 9.61089 14.2319 9.27144C14.2635 8.91243 13.9978 8.59646 13.6391 8.56483L3.04705 7.63811C2.6864 7.60485 2.37206 7.87224 2.34076 8.23092C2.30913 8.58994 2.57488 8.90591 2.93357 8.93754L13.5256 9.86426C13.5445 9.86589 13.5641 9.86687 13.583 9.86687Z" fill="#3F3631"/>
<path d="M2.39877 8.37017C2.42551 8.37017 2.45224 8.36854 2.47931 8.36528C2.83702 8.32126 3.09103 7.99583 3.04701 7.63845L2.25562 1.21369C2.21127 0.856311 1.88356 0.602295 1.52879 0.646315C1.17108 0.690336 0.91706 1.01576 0.961081 1.37315L1.75248 7.7979C1.79291 8.12822 2.07432 8.37017 2.39877 8.37017Z" fill="#3F3631"/>
<path d="M15.3201 3.14506C15.6546 3.14506 15.9393 2.88908 15.969 2.54964C16.0006 2.19062 15.7348 1.87465 15.3762 1.84302L1.66515 0.643372C1.30516 0.610438 0.990167 0.877497 0.958863 1.23619C0.927233 1.5952 1.19299 1.91117 1.55168 1.9428L15.2627 3.14245C15.2819 3.14408 15.3012 3.14506 15.3201 3.14506Z" fill="#3F3631"/>
<path d="M15.4899 1.87072C15.8114 1.87072 16.0915 1.63268 16.1352 1.30497V1.30432C16.4952 1.30432 16.7874 1.01248 16.7874 0.65216C16.7874 0.291841 16.4952 0 16.1352 0C15.4843 0 14.9287 0.486511 14.8423 1.13182C14.7947 1.48888 15.0454 1.81692 15.4025 1.86485C15.4322 1.86876 15.4609 1.87072 15.4899 1.87072Z" fill="#3F3631"/>
<path d="M16.1355 1.30475H17.2602C17.6202 1.30475 17.9124 1.01258 17.9124 0.652587C17.9124 0.292595 17.6202 0.000427246 17.2602 0.000427246H16.1355C15.7756 0.000427246 15.4834 0.292595 15.4834 0.652587C15.4834 1.01258 15.7752 1.30475 16.1355 1.30475Z" fill="#3F3631"/>
<path d="M14.5788 8.70369C14.9003 8.70369 15.1807 8.46565 15.2241 8.13762L16.1355 1.30461C16.1831 0.947557 15.9324 0.619521 15.5753 0.571913C15.2205 0.523654 14.8899 0.775061 14.8426 1.13212L13.9315 7.96545C13.8839 8.3225 14.1347 8.65054 14.4917 8.69815C14.5211 8.70206 14.5498 8.70369 14.5788 8.70369Z" fill="#3F3631"/>
<path d="M11.6461 15C12.8832 15 13.9286 13.9546 13.9286 12.7174C13.9286 11.4803 12.8832 10.4349 11.6461 10.4349C10.4089 10.4349 9.3635 11.4803 9.3635 12.7174C9.3635 13.9546 10.4089 15 11.6461 15ZM11.6461 11.7392C12.1671 11.7392 12.6243 12.1964 12.6243 12.7174C12.6243 13.2385 12.1671 13.6957 11.6461 13.6957C11.125 13.6957 10.6678 13.2385 10.6678 12.7174C10.6678 12.1964 11.1253 11.7392 11.6461 11.7392Z" fill="#3F3631"/>
<path d="M5.4505 15C6.68765 15 7.73306 13.9546 7.73306 12.7174C7.73306 11.4803 6.68765 10.4349 5.4505 10.4349C4.21336 10.4349 3.16794 11.4803 3.16794 12.7174C3.16794 13.9546 4.21336 15 5.4505 15ZM5.4505 11.7392C5.97158 11.7392 6.42874 12.1964 6.42874 12.7174C6.42874 13.2385 5.97158 13.6957 5.4505 13.6957C4.92943 13.6957 4.47226 13.2385 4.47226 12.7174C4.47226 12.1964 4.92975 11.7392 5.4505 11.7392Z" fill="#3F3631"/>
<path d="M13.2882 9.83589C14.2602 9.83589 15.0937 9.11916 15.2245 8.13766C15.2721 7.78061 15.021 7.45257 14.6639 7.40529C14.3095 7.3567 13.9788 7.60876 13.9316 7.96582C13.8853 8.31244 13.5709 8.55668 13.2285 8.52929C12.8617 8.49798 12.5532 8.76374 12.5219 9.1221C12.4903 9.48079 12.756 9.79708 13.1144 9.82871C13.1728 9.83328 13.2311 9.83589 13.2882 9.83589Z" fill="#3F3631"/>
</svg>
